<?xml version="1.0" standalone="no"?>
<!DOCTYPE svg PUBLIC "-//W3C//DTD SVG 20010904//EN"
 "http://www.w3.org/TR/2001/REC-SVG-20010904/DTD/svg10.dtd">
<svg version="1.0" xmlns="http://www.w3.org/2000/svg"
 width="192.000000pt" height="192.000000pt" viewBox="0 0 192.000000 192.000000"
 preserveAspectRatio="xMidYMid meet">

<g transform="translate(0.000000,192.000000) scale(0.100000,-0.100000)"
fill="#000000" stroke="none">
<path d="M833 1878 c-23 -24 -47 -56 -52 -71 -15 -39 -14 -101 3 -141 l14 -34
-62 -16 c-59 -15 -121 -46 -215 -109 -53 -35 -171 -153 -171 -171 0 -7 -9 -25
-20 -38 -10 -14 -29 -55 -41 -92 l-22 -66 -96 0 -97 0 -37 -38 -37 -38 0 -106
0 -105 44 -41 c48 -44 93 -58 154 -49 20 4 45 8 56 9 15 2 23 -10 42 -61 12
-35 29 -71 36 -80 8 -9 20 -28 28 -44 15 -31 147 -152 200 -184 73 -44 175
-93 192 -93 17 0 18 -6 12 -49 -10 -76 2 -117 49 -168 89 -97 200 -99 289 -7
20 22 42 52 47 67 13 35 14 98 2 130 -9 22 -7 25 21 31 45 9 206 102 263 152
85 74 97 88 111 120 7 17 19 36 26 42 8 6 27 38 42 71 27 55 31 59 53 50 35
-13 99 -11 136 5 18 7 51 34 75 59 l42 47 0 80 0 81 -46 49 -47 50 -88 0 c-89
0 -89 0 -95 28 -13 62 -27 94 -58 140 -18 26 -36 57 -40 69 -7 22 -100 112
-145 141 -15 9 -28 20 -31 23 -14 20 -151 87 -187 94 -24 4 -43 8 -43 10 0 1
7 19 15 38 18 42 19 104 4 144 -5 15 -29 47 -52 71 l-41 42 -96 0 -96 0 -41
-42z m190 -2 c43 -17 85 -68 93 -111 6 -36 -9 -98 -29 -112 -7 -5 -64 -7 -127
-4 l-114 6 -14 37 c-18 48 -9 98 25 139 46 55 105 71 166 45z m7 -270 c0 -9
-40 -13 -46 -5 -3 5 6 9 20 9 14 0 26 -2 26 -4z m-187 -70 c-117 -128 -479
-500 -483 -496 -3 3 -18 19 -33 37 l-28 32 26 62 c14 34 25 67 25 73 0 27 153
214 175 215 6 1 20 8 30 16 41 31 162 89 220 106 54 15 62 15 78 1 17 -15 16
-17 -10 -46z m330 33 c34 -11 69 -27 77 -34 8 -8 35 -23 60 -34 59 -27 71 -36
141 -102 32 -31 59 -63 59 -71 0 -8 9 -23 20 -33 11 -10 20 -23 20 -28 0 -6
14 -46 32 -89 l32 -79 -35 -35 -35 -35 -252 259 -251 259 27 21 c34 26 30 26
105 1z m-253 -26 c0 -5 -61 -138 -136 -298 l-136 -290 -140 3 c-119 3 -139 5
-136 19 3 16 528 572 541 573 4 0 7 -3 7 -7z m344 -277 c213 -219 266 -279
266 -300 l0 -27 -117 3 -117 3 -158 285 c-86 157 -157 291 -158 298 0 6 4 12
9 12 5 0 128 -123 275 -274z m-324 -56 l0 -260 -88 0 -89 0 -11 39 c-7 21 -12
45 -12 52 0 13 191 429 197 429 2 0 3 -117 3 -260z m227 -206 l-20 -54 -83 0
-84 0 0 243 0 242 104 -188 103 -188 -20 -55z m-951 96 l29 -10 0 -130 0 -130
-33 -11 c-98 -32 -207 64 -188 166 12 62 82 123 142 125 12 0 34 -5 50 -10z
m1567 -24 c104 -43 125 -172 42 -245 -42 -36 -91 -47 -140 -31 -31 10 -36 15
-30 34 4 11 9 70 11 131 2 95 5 110 21 116 29 12 61 10 96 -5z m-1470 -75 c3
-11 -1 -25 -9 -32 -12 -9 -14 -5 -14 25 0 38 14 42 23 7z m1317 -13 l0 -42
-21 21 c-17 17 -19 24 -10 42 18 33 31 25 31 -21z m-390 -30 c0 -5 -11 -8 -24
-8 -24 0 -24 2 -14 31 l11 32 13 -24 c7 -13 13 -27 14 -31z m-520 1 c0 -5 -7
-9 -15 -9 -9 0 -12 6 -9 15 6 15 24 11 24 -6z m-104 -71 c-27 -65 -70 -148
-77 -148 -14 0 -179 162 -173 171 3 5 63 9 135 9 l129 0 -14 -32z m206 -233
c48 -140 86 -255 84 -255 -7 0 -324 295 -327 303 -1 5 20 53 46 108 45 94 49
99 79 99 l31 0 87 -255z m117 23 l0 -233 -75 215 c-41 118 -77 223 -80 233 -5
15 3 17 75 17 l81 0 -1 -232z m191 229 c0 -4 -126 -355 -139 -387 -7 -18 -10
32 -10 183 l-1 207 75 0 c41 0 75 -1 75 -3z m191 -91 c48 -86 49 -90 32 -107
-42 -41 -347 -298 -350 -295 -2 2 36 114 84 250 l88 247 49 -3 48 -3 49 -89z
m216 64 c1 -8 -29 -41 -67 -73 l-69 -58 -27 53 c-15 29 -34 63 -42 76 l-15 23
109 -3 c88 -2 109 -6 111 -18z m83 -16 c0 -8 -4 -12 -10 -9 -5 3 -10 10 -10
16 0 5 5 9 10 9 6 0 10 -7 10 -16z m-1020 -235 c138 -127 250 -234 250 -238 0
-5 -9 -16 -19 -25 -16 -15 -25 -16 -59 -7 -55 15 -182 74 -208 97 -12 11 -42
33 -67 51 -25 17 -54 44 -64 60 -10 15 -32 47 -50 71 -18 24 -33 52 -33 62 0
10 -4 21 -9 24 -4 3 -14 26 -21 51 -11 41 -11 48 5 65 10 11 20 20 22 20 2 0
116 -104 253 -231z m981 185 c14 -13 16 -21 7 -47 -6 -18 -17 -41 -25 -52 -7
-11 -13 -25 -13 -32 0 -19 -64 -115 -96 -144 -93 -82 -212 -151 -309 -178 -35
-9 -42 -8 -62 11 -13 12 -23 25 -23 29 0 8 488 429 497 429 4 0 14 -7 24 -16z
m-557 -460 c25 -9 8 -24 -27 -24 -29 0 -30 1 -11 15 23 17 19 16 38 9z m-109
-14 c3 -5 -3 -10 -14 -10 -12 0 -21 5 -21 10 0 6 6 10 14 10 8 0 18 -4 21 -10z
m186 -78 c24 -72 -25 -161 -102 -183 -106 -32 -215 78 -180 183 l11 33 130 0
130 0 11 -33z"/>
</g>
</svg>
